<?xml version="1.0" encoding="utf-8"?>
<!-- Generator: Adobe Illustrator 23.0.0, SVG Export Plug-In . SVG Version: 6.00 Build 0)  -->
<svg version="1.1" id="Layer_1" xmlns="http://www.w3.org/2000/svg" xmlns:xlink="http://www.w3.org/1999/xlink" x="0px" y="0px"
	 viewBox="0 0 601 202.7" style="enable-background:new 0 0 601 202.7;" xml:space="preserve">
<style type="text/css">
	.st0{fill:#CE8A72;}
	.st1{fill:#FFFFFF;}
	.st2{enable-background:new    ;}
</style>
<g id="XMLID_66_">
	<g id="XMLID_67_">
		<path id="XMLID_68_" class="st0" d="M169.9,90.7c-0.9-7.6-4.1-13.6-5.4-15.8c1-15.7-2.2-27.6-9.3-35.2c-5.5-6-12-7.6-15.3-8.1
			c-5-10.6-13.5-12.7-18.7-12.2c-9.7-9-18.7-9.3-24.6-7.8c-3.9,1-7,2.8-8.8,4.2c-1.9-1.4-4.9-3.2-8.8-4.2
			c-5.9-1.5-14.9-1.3-24.6,7.8c-5.2-0.5-13.7,1.6-18.7,12.2c-3.3,0.5-9.8,2.2-15.3,8.1c-7.1,7.6-10.2,19.5-9.3,35.2
			c-1.3,2.3-4.5,8.3-5.4,15.8c-1.1,8.6,0.6,20.6,14,30.4c-1.6,9.2-0.1,24.9,14.5,32.7c-0.6,3.3-1,9.1,2,14.1
			c2.3,3.9,6.2,6.4,11.5,7.6c2.7,4.1,11.9,16.9,23.4,16.9c0.1,0,0.1,0,0.2,0c6.2-0.1,11.7-3.7,16.6-10.8
			c4.9,7.1,10.4,10.8,16.6,10.8c11.6,0.2,20.9-12.8,23.6-16.9c5.3-1.2,9.2-3.7,11.5-7.6c3-4.9,2.6-10.7,2-14.1
			c14.6-7.8,16.1-23.5,14.5-32.7C169.3,111.3,170.9,99.2,169.9,90.7z M150.7,117.1c-1.1,0.7-1.6,2.1-1.3,3.4c0.2,0.9,5,21-12.9,28.7
			c-1.5,0.6-2.3,2.3-1.7,3.9c0,0.1,2.1,6.8-0.7,11.6c-1.6,2.6-4.4,4.2-8.6,4.9c-0.9,0.2-1.7,0.7-2.2,1.5c-2.5,4.2-10.6,15-18.7,15
			h-0.1c-4.9-0.1-9.6-4.1-13.9-12c-0.6-1-1.7-1.6-2.9-1.6c-1.2,0-2.2,0.6-2.8,1.6c-4.3,7.9-9,11.9-13.9,12
			c-8.1,0.1-16.4-10.8-18.9-15c-0.5-0.8-1.3-1.4-2.2-1.5c-4.1-0.7-7-2.3-8.6-4.9c-2.9-4.8-0.8-11.5-0.7-11.6
			c0.5-1.6-0.2-3.2-1.7-3.9c-17.8-7.6-13.1-27.8-12.9-28.7c0.3-1.3-0.2-2.6-1.3-3.4c-23.5-15.6-8.6-38.8-7.9-39.7
			c0.4-0.6,0.6-1.3,0.5-2c-1-14.3,1.5-24.9,7.4-31.4c5.7-6.2,12.7-6.4,12.9-6.4c1.3,0,2.4-0.8,2.9-2c3.5-8.8,9.2-10.1,12.1-10.1
			c0.9,0,1.6,0.1,1.8,0.2c1.1,0.3,2.2,0,3-0.8c6.4-6.4,13-8.9,19.6-7.3c5,1.2,8.3,4.4,8.3,4.4c0.6,0.6,1.4,0.9,2.2,0.9h0.1
			c0.8,0,1.6-0.3,2.2-0.9c0,0,3.2-3.1,8.1-4.3c6.7-1.7,13.3,0.8,19.8,7.3c0.8,0.8,1.9,1.1,3,0.8c0.9-0.2,9.3-1.8,14,9.9
			c0.5,1.2,1.6,2,2.9,2c0.3,0,7.2,0.2,13,6.4c6,6.5,8.5,17,7.4,31.4c0,0.7,0.1,1.4,0.5,2c0,0.1,4,6.1,5,14.1
			C164.9,101.9,160.6,110.5,150.7,117.1z"/>
	</g>
</g>
<g id="XMLID_63_">
	<g id="XMLID_64_">
		<path id="XMLID_65_" class="st0" d="M138.7,33.5c-0.6-1.6-2.3-2.5-4-2C115.2,38,115,54.4,115,55.1c0,1.7,1.4,3.1,3.1,3.1l0,0
			c1.7,0,3.1-1.4,3.1-3.1c0-0.5,0.3-12.6,15.5-17.6C138.4,36.9,139.3,35.1,138.7,33.5z"/>
	</g>
</g>
<g id="XMLID_60_">
	<g id="XMLID_61_">
		<path id="XMLID_62_" class="st0" d="M152.9,117.8c-1.1-1.4-3-1.6-4.4-0.6c-5.1,3.9-9.8,5.3-13.8,4.1c-7.1-2.1-10.7-11.5-10.8-11.6
			c-0.6-1.6-2.4-2.5-4-1.9s-2.5,2.4-1.9,4c0.2,0.5,4.7,12.4,14.9,15.4c1.5,0.4,3.1,0.7,4.6,0.7c4.7,0,9.6-2,14.7-5.8
			C153.7,121.2,154,119.2,152.9,117.8z"/>
	</g>
</g>
<g id="XMLID_57_">
	<g id="XMLID_58_">
		<path id="XMLID_59_" class="st1" d="M99.8,120.4c-1.2-1.2-3.2-1.2-4.4,0c-1.2,1.2-1.2,3.2,0,4.4c10.2,10.2,8.1,20.1,8,20.5
			c-0.4,1.7,0.6,3.4,2.3,3.8c0.3,0.1,0.5,0.1,0.8,0.1c1.4,0,2.7-1,3-2.4C109.5,146.4,112.6,133.3,99.8,120.4z"/>
	</g>
</g>
<g id="XMLID_54_">
	<g id="XMLID_55_">
		<path id="XMLID_56_" class="st1" d="M148.6,91c-0.6-1.6-2.4-2.5-4-1.9C144,89.3,129,94.6,121,84c-4.1-5.5-5.9-10.2-7.3-14
			c-1.8-4.6-3.4-9-8.9-9.5c-1.7-0.1-3.3,1.1-3.4,2.9c-0.1,1.7,1.1,3.2,2.9,3.4c1.3,0.1,1.8,0.9,3.5,5.4c1.5,3.9,3.5,9.3,8.2,15.6
			c5.5,7.3,13.1,9.1,19.4,9.1c6.1,0,10.9-1.7,11.3-1.9C148.3,94.4,149.2,92.6,148.6,91z"/>
	</g>
</g>
<g id="XMLID_51_">
	<g id="XMLID_52_">
		<path id="XMLID_53_" class="st0" d="M85.8,16.7c-1.7,0-3.1,1.4-3.1,3.1v155.8c0,1.7,1.4,3.1,3.1,3.1s3.1-1.4,3.1-3.1V19.8
			C88.9,18.1,87.5,16.7,85.8,16.7z"/>
	</g>
</g>
<g id="XMLID_48_">
	<g id="XMLID_49_">
		<path id="XMLID_50_" class="st1" d="M108.8,43.8c0-1.7-1.4-3.1-3.2-3.1c-1.7,0-3.1,1.5-3.1,3.2c0,0.2,0.2,19.8-9.6,32.2
			c-1.1,1.4-0.8,3.3,0.5,4.4c0.6,0.5,1.3,0.7,1.9,0.7c0.9,0,1.9-0.4,2.5-1.2C109,65.8,108.8,44.6,108.8,43.8z"/>
	</g>
</g>
<g id="XMLID_45_">
	<g id="XMLID_46_">
		<path id="XMLID_47_" class="st1" d="M115.2,140.1c-13.9,0-20.4,19-20.6,19.8c-0.5,1.6,0.3,3.4,2,4c0.3,0.1,0.7,0.2,1,0.2
			c1.3,0,2.5-0.8,3-2.1c1.4-4.3,6.9-15.5,14.7-15.5c1.7,0,3.1-1.4,3.1-3.1S116.9,140.1,115.2,140.1z"/>
	</g>
</g>
<g id="XMLID_42_">
	<g id="XMLID_43_">
		<path id="XMLID_44_" class="st0" d="M118.7,18.9c-1.4-1-3.4-0.7-4.4,0.6l-7.5,10.1c-1,1.4-0.7,3.4,0.6,4.4
			c0.6,0.4,1.2,0.6,1.9,0.6c1,0,1.9-0.4,2.5-1.3l7.5-10.1C120.4,21.9,120.1,19.9,118.7,18.9z"/>
	</g>
</g>
<g id="XMLID_37_">
	<g id="XMLID_38_">
		<path id="XMLID_39_" class="st1" d="M54.3,39.2c-6.9,0-12.6,5.6-12.6,12.6s5.6,12.6,12.6,12.6s12.6-5.6,12.6-12.6
			S61.3,39.2,54.3,39.2z M54.3,58.1c-3.5,0-6.3-2.8-6.3-6.3s2.8-6.3,6.3-6.3s6.3,2.8,6.3,6.3S57.8,58.1,54.3,58.1z"/>
	</g>
</g>
<g id="XMLID_32_">
	<g id="XMLID_33_">
		<path id="XMLID_34_" class="st1" d="M32.3,80.1c-6.9,0-12.6,5.6-12.6,12.6s5.6,12.6,12.6,12.6s12.6-5.6,12.6-12.6
			C44.9,85.8,39.2,80.1,32.3,80.1z M32.3,99c-3.5,0-6.3-2.8-6.3-6.3s2.8-6.3,6.3-6.3s6.3,2.8,6.3,6.3S35.8,99,32.3,99z"/>
	</g>
</g>
<g id="XMLID_27_">
	<g id="XMLID_28_">
		<path id="XMLID_29_" class="st1" d="M63.8,108.4c-6.9,0-12.6,5.6-12.6,12.6s5.6,12.6,12.6,12.6c6.9,0,12.6-5.6,12.6-12.6
			S70.7,108.4,63.8,108.4z M63.8,127.3c-3.5,0-6.3-2.8-6.3-6.3s2.8-6.3,6.3-6.3s6.3,2.8,6.3,6.3C70.1,124.5,67.2,127.3,63.8,127.3z"
			/>
	</g>
</g>
<g id="XMLID_22_">
	<g id="XMLID_23_">
		<path id="XMLID_24_" class="st1" d="M63.8,143c-6.9,0-12.6,5.6-12.6,12.6s5.6,12.6,12.6,12.6c6.9,0,12.6-5.6,12.6-12.6
			S70.7,143,63.8,143z M63.8,161.9c-3.5,0-6.3-2.8-6.3-6.3s2.8-6.3,6.3-6.3s6.3,2.8,6.3,6.3C70.1,159.1,67.2,161.9,63.8,161.9z"/>
	</g>
</g>
<g id="XMLID_19_">
	<g id="XMLID_20_">
		<path id="XMLID_21_" class="st1" d="M54.3,58.1c-1.7,0-3.1,1.4-3.1,3.1v31.5c0,1.7,1.4,3.1,3.1,3.1c1.7,0,3.1-1.4,3.1-3.1V61.2
			C57.5,59.5,56.1,58.1,54.3,58.1z"/>
	</g>
</g>
<g id="XMLID_16_">
	<g id="XMLID_17_">
		<path id="XMLID_18_" class="st1" d="M63.8,89.5h-22c-1.7,0-3.1,1.4-3.1,3.1s1.4,3.1,3.1,3.1h22c1.7,0,3.1-1.4,3.1-3.1
			C66.9,91,65.5,89.5,63.8,89.5z"/>
	</g>
</g>
<g id="XMLID_13_">
	<g id="XMLID_14_">
		<path id="XMLID_15_" class="st1" d="M63.8,89.5c-1.7,0-3.1,1.4-3.1,3.1v18.9c0,1.7,1.4,3.1,3.1,3.1s3.1-1.4,3.1-3.1V92.7
			C66.9,91,65.5,89.5,63.8,89.5z"/>
	</g>
</g>
<g id="XMLID_10_">
	<g id="XMLID_11_">
		<path id="XMLID_12_" class="st1" d="M63.8,127.3c-1.7,0-3.1,1.4-3.1,3.1v15.7c0,1.7,1.4,3.1,3.1,3.1s3.1-1.4,3.1-3.1v-15.7
			C66.9,128.7,65.5,127.3,63.8,127.3z"/>
	</g>
</g>
<g class="st2">
	<path class="st1" d="M214.1,113.7v28.4h-15.7V63.8h31.2c9,0,16.1,2.3,21.3,6.9c5.2,4.6,7.8,10.6,7.8,18.1s-2.6,13.5-7.8,18.1
		c-5.2,4.6-12.3,6.8-21.3,6.8H214.1z M214.1,101.6h15.5c4.4,0,7.7-1.2,10-3.6s3.4-5.4,3.4-9.1c0-3.8-1.1-6.9-3.4-9.3
		c-2.2-2.5-5.6-3.7-10-3.7h-15.5V101.6z"/>
	<path class="st1" d="M300.4,126.1c0-1.7-0.8-3.2-2.5-4.5c-1.7-1.3-4.8-2.4-9.3-3.3c-6.9-1.4-12.1-3.5-15.6-6.2
		c-3.5-2.7-5.2-6.5-5.2-11.2c0-5,2.1-9.3,6.3-12.8c4.2-3.5,9.9-5.2,16.9-5.2c7.4,0,13.3,1.7,17.7,5.2c4.4,3.5,6.5,7.9,6.3,13.2
		l-0.1,0.3h-15.2c0-2.3-0.7-4.2-2.2-5.7s-3.7-2.2-6.5-2.2c-2.5,0-4.5,0.6-6,1.9s-2.2,2.8-2.2,4.7c0,1.8,0.8,3.3,2.3,4.4
		c1.5,1.1,4.6,2.2,9.3,3.1c7.2,1.4,12.5,3.5,16,6.3s5.2,6.6,5.2,11.5c0,5.2-2.2,9.5-6.7,12.8c-4.5,3.3-10.4,5-17.8,5
		c-7.8,0-13.9-2-18.4-5.9c-4.5-3.9-6.6-8.4-6.4-13.4l0.1-0.3h14.4c0.1,3.1,1.1,5.4,3.1,6.8c1.9,1.4,4.5,2.1,7.6,2.1
		c2.9,0,5.1-0.6,6.6-1.7C299.6,129.6,300.4,128.1,300.4,126.1z"/>
	<path class="st1" d="M346.8,117.7l0.6,3.2h0.3l11.1-37h16.9l-23.6,67c-1.7,4.2-3.9,7.7-6.7,10.5c-2.8,2.9-7.1,4.3-12.8,4.3
		c-1.3,0-2.6-0.1-3.7-0.3c-1.1-0.2-2.5-0.5-4.1-0.9l1.8-11.5c0.5,0.1,1,0.1,1.5,0.2c0.5,0.1,1,0.1,1.5,0.1c2.6,0,4.6-0.6,6-1.9
		c1.4-1.3,2.5-2.9,3.2-4.8l1.8-4.5L320,83.9h16.9L346.8,117.7z"/>
	<path class="st1" d="M405.7,131.2c2.8,0,5-0.8,6.7-2.4c1.7-1.6,2.5-3.8,2.5-6.5h14.3l0.2,0.3c0.1,5.9-2.1,10.8-6.6,14.8
		s-10.3,5.9-17,5.9c-8.7,0-15.4-2.7-20.1-8.2c-4.7-5.5-7.1-12.5-7.1-21.2v-1.6c0-8.6,2.3-15.6,7-21.2c4.7-5.5,11.4-8.3,20.1-8.3
		c7.2,0,13,2,17.4,6.1c4.4,4.1,6.5,9.5,6.4,16.2l-0.1,0.3H415c0-3-0.8-5.5-2.5-7.5c-1.7-2-3.9-3-6.8-3c-4.2,0-7.1,1.6-8.8,4.8
		c-1.7,3.2-2.6,7.4-2.6,12.5v1.6c0,5.2,0.9,9.4,2.6,12.6C398.6,129.6,401.5,131.2,405.7,131.2z"/>
	<path class="st1" d="M472.5,142.2c-0.6-1.3-1.1-2.7-1.5-4.2c-0.4-1.5-0.7-3-0.9-4.5c-1.6,2.8-3.7,5.2-6.4,7.1
		c-2.6,1.9-5.8,2.8-9.4,2.8c-6.1,0-10.8-1.6-14.1-4.7c-3.3-3.1-5-7.4-5-12.8c0-5.7,2.2-10.1,6.6-13.3c4.4-3.1,10.8-4.7,19.2-4.7h8.8
		v-4.6c0-2.8-0.7-5-2.2-6.5s-3.6-2.3-6.5-2.3c-2.5,0-4.5,0.6-5.9,1.9s-2.1,3-2.1,5.1l-15.2-0.1l-0.1-0.3c-0.3-4.9,1.9-9.2,6.4-12.7
		s10.5-5.4,17.8-5.4c7,0,12.6,1.8,17,5.3s6.5,8.6,6.5,15.1v24.1c0,2.7,0.2,5.3,0.6,7.7c0.4,2.4,1.1,4.8,2,7.2H472.5z M458.2,131.7
		c2.8,0,5.2-0.7,7.4-2c2.2-1.4,3.6-2.9,4.4-4.7v-8.2h-8.8c-3.3,0-5.9,0.8-7.6,2.5c-1.7,1.7-2.6,3.7-2.6,6.1c0,1.9,0.6,3.5,1.9,4.7
		S455.9,131.7,458.2,131.7z"/>
	<path class="st1" d="M528.2,97.4l-5.8-0.2c-2.3,0-4.3,0.5-5.8,1.5s-2.7,2.3-3.4,4.1v39.4h-15.7V83.9h14.6l0.7,8.6
		c1.4-3.1,3.1-5.4,5.3-7.1c2.2-1.7,4.7-2.6,7.5-2.6c0.8,0,1.5,0.1,2.2,0.2c0.7,0.1,1.3,0.3,2,0.5L528.2,97.4z"/>
	<path class="st1" d="M562,143.3c-8.4,0-15.1-2.7-20.1-8.1s-7.5-12.2-7.5-20.5v-2.2c0-8.7,2.4-15.8,7.1-21.4
		c4.8-5.6,11.1-8.4,19.1-8.3c7.9,0,14,2.4,18.3,7.1c4.3,4.7,6.5,11.1,6.5,19.2v8.6h-34.8l-0.1,0.3c0.3,3.8,1.6,7,3.8,9.4
		c2.3,2.5,5.4,3.7,9.3,3.7c3.5,0,6.4-0.3,8.7-1c2.3-0.7,4.8-1.8,7.5-3.3l4.3,9.7c-2.4,1.9-5.5,3.5-9.3,4.8
		C570.9,142.6,566.7,143.3,562,143.3z M560.6,94.9c-2.9,0-5.2,1.1-6.9,3.3c-1.7,2.2-2.7,5.2-3.1,8.8l0.2,0.3H570v-1.4
		c0-3.3-0.8-6-2.3-8C566.1,95.9,563.7,94.9,560.6,94.9z"/>
</g>
</svg>
